<mxfile host="65bd71144e">
    <diagram id="XNNGlXIHdcnlJP7jXLbG" name="Page-1">
        <mxGraphModel dx="577" dy="360" grid="0" gridSize="10" guides="1" tooltips="1" connect="1" arrows="1" fold="1" page="1" pageScale="1" pageWidth="827" pageHeight="1169" math="0" shadow="0">
            <root>
                <mxCell id="0"/>
                <mxCell id="1" parent="0"/>
                <mxCell id="32" value="" style="whiteSpace=wrap;html=1;strokeWidth=0;fillColor=none;strokeColor=none;" parent="1" vertex="1">
                    <mxGeometry width="820" height="1160" as="geometry"/>
                </mxCell>
                <mxCell id="29" style="edgeStyle=none;rounded=0;html=1;exitX=1;exitY=0.5;exitDx=0;exitDy=0;exitPerimeter=0;entryX=0;entryY=0.5;entryDx=0;entryDy=0;entryPerimeter=0;endArrow=none;endFill=0;dashed=1;" parent="1" source="2" target="3" edge="1">
                    <mxGeometry relative="1" as="geometry"/>
                </mxCell>
                <mxCell id="108" style="edgeStyle=none;rounded=0;html=1;exitX=0.5;exitY=0.5;exitDx=0;exitDy=30;exitPerimeter=0;entryX=0.5;entryY=0;entryDx=0;entryDy=0;fontSize=12;endArrow=none;endFill=0;" edge="1" parent="1" source="2" target="45">
                    <mxGeometry relative="1" as="geometry"/>
                </mxCell>
                <mxCell id="2" value="Начало" style="html=1;dashed=0;whitespace=wrap;shape=mxgraph.dfd.start" parent="1" vertex="1">
                    <mxGeometry x="320" y="20" width="150" height="60" as="geometry"/>
                </mxCell>
                <mxCell id="3" value="&amp;nbsp;Вспомогательная процедура&amp;nbsp;&lt;span style=&quot;text-align: center&quot;&gt;child_reconciliate&lt;/span&gt;&lt;br&gt;&amp;nbsp;Вход: old_root, узел старого VDOM-дерева&lt;br&gt;&amp;nbsp; &amp;nbsp; &amp;nbsp; &amp;nbsp; &amp;nbsp; &amp;nbsp;new_root, узел нового VDOM-дерева&lt;br&gt;&amp;nbsp; &amp;nbsp; &amp;nbsp; &amp;nbsp; &amp;nbsp; &amp;nbsp;node_diffs, массив изменений узлов&lt;br&gt;&amp;nbsp; &amp;nbsp; &amp;nbsp; &amp;nbsp; &amp;nbsp; &amp;nbsp;tree_diffs, массив поддеревьев&lt;br&gt;&amp;nbsp;reconciliate&lt;span style=&quot;color: rgb(51 , 51 , 51) ; font-family: &amp;#34;opensans&amp;#34; , &amp;#34;arial&amp;#34; , &amp;#34;freesans&amp;#34; , sans-serif ; font-size: 14px ; background-color: rgb(255 , 255 , 255)&quot;&gt;—&amp;nbsp;&lt;/span&gt;алгоритм согласования" style="strokeWidth=2;html=1;shape=mxgraph.flowchart.annotation_1;align=left;pointerEvents=1;" parent="1" vertex="1">
                    <mxGeometry x="490" y="4.5" width="50" height="91" as="geometry"/>
                </mxCell>
                <mxCell id="13" value="Конец" style="html=1;dashed=0;whitespace=wrap;shape=mxgraph.dfd.start" parent="1" vertex="1">
                    <mxGeometry x="320" y="1110" width="150" height="51" as="geometry"/>
                </mxCell>
                <mxCell id="113" style="edgeStyle=none;rounded=0;html=1;exitX=0.5;exitY=0;exitDx=0;exitDy=0;entryX=0.5;entryY=0.5;entryDx=0;entryDy=-25.5;entryPerimeter=0;fontSize=12;endArrow=none;endFill=0;" edge="1" parent="1" source="17" target="13">
                    <mxGeometry relative="1" as="geometry"/>
                </mxCell>
                <mxCell id="17" value="" style="shape=loopLimit;whiteSpace=wrap;html=1;rotation=-180;" parent="1" vertex="1">
                    <mxGeometry x="320" y="1032.25" width="150" height="60" as="geometry"/>
                </mxCell>
                <mxCell id="109" style="edgeStyle=none;rounded=0;html=1;exitX=0.5;exitY=1;exitDx=0;exitDy=0;entryX=0.5;entryY=0;entryDx=0;entryDy=0;fontSize=12;endArrow=none;endFill=0;" edge="1" parent="1" source="45" target="82">
                    <mxGeometry relative="1" as="geometry"/>
                </mxCell>
                <mxCell id="45" value="i = 0;&lt;br&gt;j = 0;&lt;br&gt;old_child = null;&lt;br&gt;new_child = null;" style="rounded=0;whiteSpace=wrap;html=1;" parent="1" vertex="1">
                    <mxGeometry x="320" y="102.25" width="150" height="60" as="geometry"/>
                </mxCell>
                <mxCell id="90" style="edgeStyle=none;rounded=0;html=1;exitX=0.5;exitY=1;exitDx=0;exitDy=0;entryX=0.5;entryY=0;entryDx=0;entryDy=0;fontSize=11;endArrow=block;endFill=1;" edge="1" parent="1" source="47" target="88">
                    <mxGeometry relative="1" as="geometry">
                        <Array as="points">
                            <mxPoint x="505" y="402.25"/>
                            <mxPoint x="395" y="402.25"/>
                        </Array>
                    </mxGeometry>
                </mxCell>
                <mxCell id="47" value="old_child = old_root.children[i];" style="rounded=0;whiteSpace=wrap;html=1;" parent="1" vertex="1">
                    <mxGeometry x="430" y="322.25" width="150" height="60" as="geometry"/>
                </mxCell>
                <mxCell id="80" value="Да" style="text;html=1;resizable=0;autosize=1;align=center;verticalAlign=middle;points=[];fillColor=none;strokeColor=none;rounded=0;" parent="1" vertex="1">
                    <mxGeometry x="480" y="272.25" width="30" height="20" as="geometry"/>
                </mxCell>
                <mxCell id="110" style="edgeStyle=none;rounded=0;html=1;exitX=0.5;exitY=1;exitDx=0;exitDy=0;entryX=0.5;entryY=0;entryDx=0;entryDy=0;fontSize=12;endArrow=none;endFill=0;" edge="1" parent="1" source="82" target="83">
                    <mxGeometry relative="1" as="geometry"/>
                </mxCell>
                <mxCell id="82" value="Пока &lt;br&gt;i &amp;lt; old_root.children.length или&lt;br&gt;j &amp;lt; new_root.children" style="shape=loopLimit;whiteSpace=wrap;html=1;rotation=0;" vertex="1" parent="1">
                    <mxGeometry x="320" y="182.25" width="150" height="60" as="geometry"/>
                </mxCell>
                <mxCell id="84" style="edgeStyle=none;html=1;exitX=1;exitY=0.5;exitDx=0;exitDy=0;entryX=0.5;entryY=0;entryDx=0;entryDy=0;fontSize=11;rounded=0;endArrow=block;endFill=1;" edge="1" parent="1" source="83" target="47">
                    <mxGeometry relative="1" as="geometry">
                        <Array as="points">
                            <mxPoint x="505" y="292.25"/>
                        </Array>
                    </mxGeometry>
                </mxCell>
                <mxCell id="89" style="edgeStyle=none;rounded=0;html=1;exitX=0;exitY=0.5;exitDx=0;exitDy=0;entryX=0.5;entryY=0;entryDx=0;entryDy=0;fontSize=11;endArrow=block;endFill=1;" edge="1" parent="1" source="83" target="88">
                    <mxGeometry relative="1" as="geometry">
                        <Array as="points">
                            <mxPoint x="280" y="292.25"/>
                            <mxPoint x="280" y="402.25"/>
                            <mxPoint x="395" y="402.25"/>
                        </Array>
                    </mxGeometry>
                </mxCell>
                <mxCell id="83" value="&lt;span&gt;i &amp;lt; old_root.children.length&lt;/span&gt;" style="rhombus;whiteSpace=wrap;html=1;rotation=0;fontSize=11;" vertex="1" parent="1">
                    <mxGeometry x="320" y="262.25" width="150" height="60" as="geometry"/>
                </mxCell>
                <mxCell id="106" style="edgeStyle=none;rounded=0;html=1;exitX=0.5;exitY=1;exitDx=0;exitDy=0;entryX=0.5;entryY=0;entryDx=0;entryDy=0;fontSize=12;endArrow=block;endFill=1;" edge="1" parent="1" source="85" target="91">
                    <mxGeometry relative="1" as="geometry">
                        <Array as="points">
                            <mxPoint x="505" y="560"/>
                            <mxPoint x="395" y="560"/>
                        </Array>
                    </mxGeometry>
                </mxCell>
                <mxCell id="85" value="new_child = new_root.children[i];" style="rounded=0;whiteSpace=wrap;html=1;" vertex="1" parent="1">
                    <mxGeometry x="430" y="482.25" width="150" height="60" as="geometry"/>
                </mxCell>
                <mxCell id="86" value="Да" style="text;html=1;resizable=0;autosize=1;align=center;verticalAlign=middle;points=[];fillColor=none;strokeColor=none;rounded=0;" vertex="1" parent="1">
                    <mxGeometry x="480" y="432.25" width="30" height="20" as="geometry"/>
                </mxCell>
                <mxCell id="87" style="edgeStyle=none;html=1;exitX=1;exitY=0.5;exitDx=0;exitDy=0;entryX=0.5;entryY=0;entryDx=0;entryDy=0;fontSize=11;rounded=0;endArrow=block;endFill=1;" edge="1" parent="1" source="88" target="85">
                    <mxGeometry relative="1" as="geometry">
                        <Array as="points">
                            <mxPoint x="505" y="452.25"/>
                        </Array>
                    </mxGeometry>
                </mxCell>
                <mxCell id="107" style="edgeStyle=none;rounded=0;html=1;exitX=0;exitY=0.5;exitDx=0;exitDy=0;entryX=0.5;entryY=0;entryDx=0;entryDy=0;fontSize=12;endArrow=block;endFill=1;" edge="1" parent="1" source="88" target="91">
                    <mxGeometry relative="1" as="geometry">
                        <Array as="points">
                            <mxPoint x="280" y="452"/>
                            <mxPoint x="280" y="560"/>
                            <mxPoint x="395" y="560"/>
                        </Array>
                    </mxGeometry>
                </mxCell>
                <mxCell id="88" value="&lt;span&gt;j&amp;lt; new_root.children.length&lt;/span&gt;" style="rhombus;whiteSpace=wrap;html=1;rotation=0;fontSize=11;" vertex="1" parent="1">
                    <mxGeometry x="320" y="422.25" width="150" height="60" as="geometry"/>
                </mxCell>
                <mxCell id="111" style="edgeStyle=none;rounded=0;html=1;exitX=0.5;exitY=1;exitDx=0;exitDy=0;fontSize=12;endArrow=none;endFill=0;" edge="1" parent="1" source="91" target="92">
                    <mxGeometry relative="1" as="geometry"/>
                </mxCell>
                <mxCell id="91" value="&lt;span style=&quot;font-size: 12px&quot;&gt;child_reconciliate(&lt;br&gt;old_child, new_child, node_diffs, tree_diffs);&lt;/span&gt;" style="shape=process;whiteSpace=wrap;html=1;backgroundOutline=1;fontSize=8;rotation=0;" vertex="1" parent="1">
                    <mxGeometry x="320" y="572.25" width="150" height="60" as="geometry"/>
                </mxCell>
                <mxCell id="112" style="edgeStyle=none;rounded=0;html=1;exitX=0.5;exitY=1;exitDx=0;exitDy=0;fontSize=12;endArrow=none;endFill=0;" edge="1" parent="1" source="92" target="98">
                    <mxGeometry relative="1" as="geometry"/>
                </mxCell>
                <mxCell id="92" value="i++;&lt;br&gt;j++;" style="rounded=0;whiteSpace=wrap;html=1;" vertex="1" parent="1">
                    <mxGeometry x="320" y="652.25" width="150" height="60" as="geometry"/>
                </mxCell>
                <mxCell id="93" style="edgeStyle=none;rounded=0;html=1;exitX=0.5;exitY=1;exitDx=0;exitDy=0;entryX=0.5;entryY=0;entryDx=0;entryDy=0;fontSize=11;endArrow=block;endFill=1;" edge="1" parent="1" source="94" target="102">
                    <mxGeometry relative="1" as="geometry">
                        <Array as="points">
                            <mxPoint x="505" y="872.25"/>
                            <mxPoint x="395" y="872.25"/>
                        </Array>
                    </mxGeometry>
                </mxCell>
                <mxCell id="94" value="old_child = null;" style="rounded=0;whiteSpace=wrap;html=1;" vertex="1" parent="1">
                    <mxGeometry x="430" y="792.25" width="150" height="60" as="geometry"/>
                </mxCell>
                <mxCell id="95" value="Да" style="text;html=1;resizable=0;autosize=1;align=center;verticalAlign=middle;points=[];fillColor=none;strokeColor=none;rounded=0;" vertex="1" parent="1">
                    <mxGeometry x="480" y="742.25" width="30" height="20" as="geometry"/>
                </mxCell>
                <mxCell id="96" style="edgeStyle=none;html=1;exitX=1;exitY=0.5;exitDx=0;exitDy=0;entryX=0.5;entryY=0;entryDx=0;entryDy=0;fontSize=11;rounded=0;endArrow=block;endFill=1;" edge="1" parent="1" source="98" target="94">
                    <mxGeometry relative="1" as="geometry">
                        <Array as="points">
                            <mxPoint x="505" y="762.25"/>
                        </Array>
                    </mxGeometry>
                </mxCell>
                <mxCell id="97" style="edgeStyle=none;rounded=0;html=1;exitX=0;exitY=0.5;exitDx=0;exitDy=0;entryX=0.5;entryY=0;entryDx=0;entryDy=0;fontSize=11;endArrow=block;endFill=1;" edge="1" parent="1" source="98" target="102">
                    <mxGeometry relative="1" as="geometry">
                        <Array as="points">
                            <mxPoint x="280" y="762.25"/>
                            <mxPoint x="280" y="872.25"/>
                            <mxPoint x="395" y="872.25"/>
                        </Array>
                    </mxGeometry>
                </mxCell>
                <mxCell id="98" value="&lt;span style=&quot;font-size: 10px&quot;&gt;i == old_root.children.length&lt;/span&gt;" style="rhombus;whiteSpace=wrap;html=1;rotation=0;fontSize=11;" vertex="1" parent="1">
                    <mxGeometry x="320" y="732.25" width="150" height="60" as="geometry"/>
                </mxCell>
                <mxCell id="103" style="edgeStyle=none;rounded=0;html=1;exitX=0.5;exitY=1;exitDx=0;exitDy=0;entryX=0.5;entryY=1;entryDx=0;entryDy=0;fontSize=10;endArrow=block;endFill=1;" edge="1" parent="1" source="99" target="17">
                    <mxGeometry relative="1" as="geometry">
                        <Array as="points">
                            <mxPoint x="505" y="1020"/>
                            <mxPoint x="395" y="1020"/>
                        </Array>
                    </mxGeometry>
                </mxCell>
                <mxCell id="99" value="new_child = null;" style="rounded=0;whiteSpace=wrap;html=1;" vertex="1" parent="1">
                    <mxGeometry x="430" y="952.25" width="150" height="60" as="geometry"/>
                </mxCell>
                <mxCell id="100" value="Да" style="text;html=1;resizable=0;autosize=1;align=center;verticalAlign=middle;points=[];fillColor=none;strokeColor=none;rounded=0;" vertex="1" parent="1">
                    <mxGeometry x="480" y="902.25" width="30" height="20" as="geometry"/>
                </mxCell>
                <mxCell id="101" style="edgeStyle=none;html=1;exitX=1;exitY=0.5;exitDx=0;exitDy=0;entryX=0.5;entryY=0;entryDx=0;entryDy=0;fontSize=11;rounded=0;endArrow=block;endFill=1;" edge="1" parent="1" source="102" target="99">
                    <mxGeometry relative="1" as="geometry">
                        <Array as="points">
                            <mxPoint x="505" y="922.25"/>
                        </Array>
                    </mxGeometry>
                </mxCell>
                <mxCell id="104" style="edgeStyle=none;rounded=0;html=1;exitX=0;exitY=0.5;exitDx=0;exitDy=0;entryX=0.5;entryY=1;entryDx=0;entryDy=0;fontSize=10;endArrow=block;endFill=1;" edge="1" parent="1" source="102" target="17">
                    <mxGeometry relative="1" as="geometry">
                        <Array as="points">
                            <mxPoint x="280" y="922"/>
                            <mxPoint x="280" y="1020"/>
                            <mxPoint x="395" y="1020"/>
                        </Array>
                    </mxGeometry>
                </mxCell>
                <mxCell id="102" value="&lt;span&gt;&lt;font style=&quot;font-size: 10px&quot;&gt;j == new_root.children.length&lt;/font&gt;&lt;/span&gt;" style="rhombus;whiteSpace=wrap;html=1;rotation=0;fontSize=11;" vertex="1" parent="1">
                    <mxGeometry x="320" y="892.25" width="150" height="60" as="geometry"/>
                </mxCell>
                <mxCell id="105" value="Конец цикла" style="text;html=1;resizable=0;autosize=1;align=center;verticalAlign=middle;points=[];fillColor=none;strokeColor=none;rounded=0;fontSize=12;" vertex="1" parent="1">
                    <mxGeometry x="350" y="1052.25" width="90" height="20" as="geometry"/>
                </mxCell>
            </root>
        </mxGraphModel>
    </diagram>
</mxfile>